<?xml version="1.0" encoding="UTF-8" standalone="no"?>
<!-- Created with Inkscape (http://www.inkscape.org/) -->

<svg
   xmlns:dc="http://purl.org/dc/elements/1.1/"
   xmlns:cc="http://creativecommons.org/ns#"
   xmlns:rdf="http://www.w3.org/1999/02/22-rdf-syntax-ns#"
   xmlns:svg="http://www.w3.org/2000/svg"
   xmlns="http://www.w3.org/2000/svg"
   xmlns:sodipodi="http://sodipodi.sourceforge.net/DTD/sodipodi-0.dtd"
   xmlns:inkscape="http://www.inkscape.org/namespaces/inkscape"
   width="131.9137mm"
   height="136.95134mm"
   viewBox="0 0 131.9137 136.95134"
   version="1.1"
   id="svg8"
   inkscape:version="0.92.2 (5c3e80d, 2017-08-06)"
   sodipodi:docname="logo.svg"
   inkscape:export-filename="D:\Cours\Programmation Web\logo.png"
   inkscape:export-xdpi="245.21371"
   inkscape:export-ydpi="245.21371">
  <defs
     id="defs2" />
  <sodipodi:namedview
     id="base"
     pagecolor="#ffffff"
     bordercolor="#666666"
     borderopacity="1.0"
     inkscape:pageopacity="0.0"
     inkscape:pageshadow="2"
     inkscape:zoom="0.98994949"
     inkscape:cx="-193.68913"
     inkscape:cy="296.86046"
     inkscape:document-units="mm"
     inkscape:current-layer="layer1"
     showgrid="false"
     inkscape:snap-grids="true"
     inkscape:window-width="1920"
     inkscape:window-height="1017"
     inkscape:window-x="-8"
     inkscape:window-y="-8"
     inkscape:window-maximized="1">
    <inkscape:grid
       type="xygrid"
       id="grid4510"
       originx="-40.962732"
       originy="-134.20613" />
  </sodipodi:namedview>
  <metadata
     id="metadata5">
    <rdf:RDF>
      <cc:Work
         rdf:about="">
        <dc:format>image/svg+xml</dc:format>
        <dc:type
           rdf:resource="http://purl.org/dc/dcmitype/StillImage" />
        <dc:title />
      </cc:Work>
    </rdf:RDF>
  </metadata>
  <g
     inkscape:groupmode="layer"
     id="layer2"
     inkscape:label="terre"
     transform="translate(-40.962729,-25.842513)">
    <path
       style="fill:#a44800;fill-opacity:1;stroke:none;stroke-width:0.22042641px;stroke-linecap:butt;stroke-linejoin:miter;stroke-opacity:1"
       d="m 57.493915,159.79673 h 46.759495 l 9.57457,-4.67595 1.33599,-2.89464 -0.87278,-7.28635 -4.08004,-4.18964 -1.50444,-4.88983 -6.34593,-2.56064 -1.89266,-3.78529 -7.12525,-1.11333 -2.56064,1.66998 -3.896625,-4.34195 -9.574565,-3.1173 -7.79325,2.89463 -6.902595,7.12526 -7.125258,2.67197 -3.117301,8.01592 1.00199,4.23063 -3.1173,2.78329 0.779324,4.78729 z"
       id="path4504"
       inkscape:connector-curvature="0"
       sodipodi:nodetypes="ccccccccccccccccccccc" />
    <path
       style="fill:#953b00;fill-opacity:1;stroke:none;stroke-width:0.22042641px;stroke-linecap:butt;stroke-linejoin:miter;stroke-opacity:1"
       d="m 75.255279,146.46909 13.301994,-2.26485 12.767147,-0.70348 8.88673,-2.75061 -1.50444,-4.88983 -12.485026,5.78542 -11.016686,0.62517 -5.402606,1.57256 z"
       id="path4504-0"
       inkscape:connector-curvature="0"
       sodipodi:nodetypes="ccccccccc" />
    <path
       style="fill:#c56300;fill-opacity:1;stroke:none;stroke-width:0.22042641px;stroke-linecap:butt;stroke-linejoin:miter;stroke-opacity:1"
       d="m 118.53558,150.19244 3.7853,-2.22665 2.95984,1.7161 3.72009,-0.15745 1.58566,2.85643 -3.36698,1.81953 -5.78927,-0.89066 z"
       id="path4584"
       inkscape:connector-curvature="0"
       sodipodi:nodetypes="cccccccc" />
    <path
       style="fill:#c56300;fill-opacity:1;stroke:none;stroke-width:0.22042641px;stroke-linecap:butt;stroke-linejoin:miter;stroke-opacity:1"
       d="m 40.962729,155.13388 2.894635,-2.89463 3.785293,1.11332 -0.222664,2.67197 -3.562629,1.78132 z"
       id="path4586"
       inkscape:connector-curvature="0"
       sodipodi:nodetypes="cccccc" />
    <path
       style="fill:#953a00;fill-opacity:1;stroke:none;stroke-width:0.22042641px;stroke-linecap:butt;stroke-linejoin:miter;stroke-opacity:1"
       d="m 118.53558,150.19244 6.14701,1.70954 5.90388,0.47889 -3.36698,1.81953 -5.78927,-0.89066 z"
       id="path4584-3"
       inkscape:connector-curvature="0"
       sodipodi:nodetypes="cccccc" />
    <path
       style="fill:#953a00;fill-opacity:1;stroke:none;stroke-width:0.22042641px;stroke-linecap:butt;stroke-linejoin:miter;stroke-opacity:1"
       d="m 40.962729,155.13388 3.524425,0.25432 2.932839,0.63634 -3.562629,1.78132 z"
       id="path4586-1"
       inkscape:connector-curvature="0"
       sodipodi:nodetypes="ccccc" />
    <path
       style="fill:#c56300;fill-opacity:1;stroke:none;stroke-width:0.22042641px;stroke-linecap:butt;stroke-linejoin:miter;stroke-opacity:1"
       d="m 116.52954,160.5672 1.50299,-2.33797 2.9503,0.55667 0.167,2.17097 -2.50498,1.83698 z"
       id="path4586-8"
       inkscape:connector-curvature="0"
       sodipodi:nodetypes="cccccc" />
    <path
       style="fill:#953a00;fill-opacity:1;stroke:none;stroke-width:0.22042641px;stroke-linecap:butt;stroke-linejoin:miter;stroke-opacity:1"
       d="m 116.52954,160.5672 4.45329,-1.7813 0.167,2.17097 -2.50498,1.83698 z"
       id="path4586-1-7"
       inkscape:connector-curvature="0"
       sodipodi:nodetypes="ccccc" />
    <path
       style="fill:#953a00;fill-opacity:1;stroke:none;stroke-width:0.22042641px;stroke-linecap:butt;stroke-linejoin:miter;stroke-opacity:1"
       d="m 83.768304,132.18635 7.013926,-2.11531 -3.896625,-4.34195 -4.898615,4.00795 -3.117299,4.89862 -8.015916,2.00398 -5.566608,-0.44533 3.1173,3.11731 10.910552,-1.78132 z"
       id="path4504-6"
       inkscape:connector-curvature="0"
       sodipodi:nodetypes="cccccccccc" />
    <path
       style="fill:#953a00;fill-opacity:1;stroke:none;stroke-width:0.22042641px;stroke-linecap:butt;stroke-linejoin:miter;stroke-opacity:1"
       d="m 57.493915,159.79673 h 46.759495 l 9.57457,-4.67595 1.33599,-2.89464 -5.34394,1.78132 -13.35986,3.56263 -3.785291,-2.89464 -12.691867,3.33996 -7.793247,-2.00397 H 61.724538 l -1.558651,-2.00398 7.347924,-1.78132 9.797229,0.44533 -1.335986,-1.78131 -6.902595,-0.668 -12.023871,3.33997 -6.791262,-3.22864 0.779324,4.78729 z"
       id="path4504-67"
       inkscape:connector-curvature="0"
       sodipodi:nodetypes="ccccccccccccccccccc" />
  </g>
  <g
     inkscape:label="plante"
     inkscape:groupmode="layer"
     id="layer1"
     style="display:inline"
     transform="translate(-40.962729,-25.842513)">
    <path
       style="fill:#8bff00;fill-opacity:1;stroke:none;stroke-width:0.41420835px;stroke-linecap:butt;stroke-linejoin:miter;stroke-opacity:1"
       d="m 75.836308,128.12505 4.06217,3.8788 4.062165,-3.8788 -2.437297,-14.6532 L 83.148213,97.956708 96.95958,78.562759 119.70774,63.478567 93.70985,75.545916 78.273606,96.232793 75.023873,114.3338 Z"
       id="path4506"
       inkscape:connector-curvature="0" />
    <path
       style="fill:#8bff00;fill-opacity:1;stroke:none;stroke-width:0.38403246px;stroke-linecap:butt;stroke-linejoin:miter;stroke-opacity:1"
       d="M 84.040138,94.714941 96.45395,82.30114 l 18.62069,-5.431044 21.72417,3.491383 18.6207,10.086224 17.45691,15.517247 -25.60347,5.04312 -19.7845,1.1638 -16.29311,-5.43105 -13.18968,-9.698286 z"
       id="path4508"
       inkscape:connector-curvature="0" />
    <path
       style="fill:#8bff00;fill-opacity:1;fill-rule:nonzero;stroke:none;stroke-width:0.38403246px;stroke-linecap:butt;stroke-linejoin:miter;stroke-opacity:1"
       d="M 102.729,72.394277 100.40142,58.428748 91.86692,47.17874 75.961738,36.31666 58.504823,32.825276 45.703089,25.842513 l 2.327587,18.232776 6.982766,16.293115 10.474148,9.310353 17.844846,6.982767 z"
       id="path4512"
       inkscape:connector-curvature="0" />
    <path
       style="display:inline;fill:#00f417;fill-opacity:1;stroke:none;stroke-width:0.41420835px;stroke-linecap:butt;stroke-linejoin:miter;stroke-opacity:1"
       d="m 83.960643,128.12505 -4.062165,3.8788 L 78.231639,114.56908 80.816587,97.545248 95.45088,77.191213 119.70774,63.478567 96.95958,78.562759 83.148213,97.956708 81.523346,113.47185 Z"
       id="path4506-2"
       inkscape:connector-curvature="0"
       sodipodi:nodetypes="cccccccccc" />
    <path
       style="display:inline;fill:#00f417;fill-opacity:1;stroke:none;stroke-width:0.38403246px;stroke-linecap:butt;stroke-linejoin:miter;stroke-opacity:1"
       d="m 84.040133,94.714941 9.945027,-4.45886 14.78037,0.329453 23.09571,3.765686 16.70055,6.24591 24.31463,5.36782 -25.60347,5.04312 -19.7845,1.1638 -16.29311,-5.43105 -13.18968,-9.698286 z"
       id="path4508-1"
       inkscape:connector-curvature="0"
       sodipodi:nodetypes="ccccccccccc" />
    <path
       style="display:inline;fill:#00f417;fill-opacity:1;fill-rule:nonzero;stroke:none;stroke-width:0.38403246px;stroke-linecap:butt;stroke-linejoin:miter;stroke-opacity:1"
       d="M 102.72901,72.394278 86.685969,66.109398 75.408388,59.522639 63.069218,50.032107 53.567262,39.40869 45.703093,25.842513 l 2.327593,18.232776 6.982763,16.293115 10.474151,9.310354 17.844833,6.982766 z"
       id="path4512-7"
       inkscape:connector-curvature="0"
       sodipodi:nodetypes="ccccccccccc" />
  </g>
</svg>
